<?xml version="1.0" standalone="no"?>
<!DOCTYPE svg PUBLIC "-//W3C//DTD SVG 20010904//EN"
 "http://www.w3.org/TR/2001/REC-SVG-20010904/DTD/svg10.dtd">
<svg version="1.0" xmlns="http://www.w3.org/2000/svg"
 width="120.000000pt" height="120.000000pt" viewBox="0 0 120.000000 120.000000"
 preserveAspectRatio="xMidYMid meet">
<metadata>
Created by potrace 1.14, written by Peter Selinger 2001-2017
</metadata>
<g transform="translate(0.000000,120.000000) scale(0.100000,-0.100000)"
fill="#000000" stroke="none">
<path d="M332 911 c-140 -48 -231 -188 -220 -336 10 -117 80 -220 187 -272 47
-24 69 -28 136 -28 54 0 95 6 126 18 45 18 47 18 110 -3 154 -53 318 16 397
165 24 44 27 61 27 145 0 84 -3 101 -27 145 -79 150 -239 216 -396 166 l-69
-22 -61 20 c-75 26 -140 26 -210 2z m219 -31 l27 -12 -39 -39 c-123 -123 -122
-336 2 -460 l37 -37 -27 -12 c-47 -22 -153 -24 -212 -5 -72 24 -159 110 -182
179 -22 63 -22 149 0 212 21 63 110 154 173 177 52 19 179 18 221 -3z m332 0
c156 -58 234 -250 164 -403 -53 -117 -164 -183 -292 -175 -39 3 -80 10 -93 17
l-23 12 37 41 c119 132 119 324 0 456 -24 26 -33 43 -26 47 48 30 160 32 233
5z m-231 -67 c62 -66 66 -94 4 -33 -31 30 -56 58 -56 62 0 17 17 7 52 -29z m5
-75 c67 -67 83 -88 83 -113 0 -28 -4 -25 -100 70 -76 76 -97 102 -88 112 6 7
13 13 17 13 3 0 43 -37 88 -82z m-26 -84 c81 -81 105 -111 101 -126 -4 -17
-23 -1 -118 93 -67 66 -110 117 -107 125 3 8 8 14 11 14 4 0 55 -48 113 -106z
m-28 -72 c79 -80 106 -113 101 -125 -3 -9 -9 -17 -13 -17 -3 0 -52 46 -109
103 -68 68 -102 110 -102 125 0 12 3 22 8 22 4 0 56 -49 115 -108z m57 -187
c-12 -14 -23 -7 -102 72 -72 71 -88 93 -88 118 0 29 4 25 102 -72 89 -89 100
-104 88 -118z m-43 -41 c-11 -11 -55 24 -87 68 -49 67 -34 67 32 1 34 -34 59
-65 55 -69z"/>
</g>
</svg>
